<?xml version="1.0" encoding="UTF-8"?>
<svg id="Layer_1" xmlns="http://www.w3.org/2000/svg" xmlns:xlink="http://www.w3.org/1999/xlink" version="1.1" viewBox="0 0 64 64">
  <!-- Generator: Adobe Illustrator 30.6.0, SVG Export Plug-In . SVG Version: 2.1.4 Build 109)  -->
  <defs>
    <style>
      .st0 {
        fill: url(#linear-gradient2);
      }

      .st1 {
        fill: url(#linear-gradient1);
      }

      .st2 {
        fill: url(#linear-gradient3);
      }

      .st3 {
        fill: url(#linear-gradient6);
      }

      .st4 {
        fill: url(#linear-gradient8);
      }

      .st5 {
        fill: url(#linear-gradient7);
      }

      .st6 {
        fill: url(#linear-gradient5);
      }

      .st7 {
        fill: url(#linear-gradient4);
      }

      .st8 {
        fill: url(#linear-gradient);
      }
    </style>
    <linearGradient id="linear-gradient" x1="19.42" y1="65.9" x2="8.23" y2="28.88" gradientTransform="translate(0 64.11) scale(1 -1)" gradientUnits="userSpaceOnUse">
      <stop offset="0" stop-color="#f09d50"/>
      <stop offset=".84" stop-color="#ee4d6e"/>
      <stop offset="1" stop-color="#e12f6a"/>
    </linearGradient>
    <linearGradient id="linear-gradient1" x1="20.11" y1="62.44" x2="8.92" y2="25.42" xlink:href="#linear-gradient"/>
    <linearGradient id="linear-gradient2" x1="56.49" y1="49.36" x2="45.31" y2="12.34" xlink:href="#linear-gradient"/>
    <linearGradient id="linear-gradient3" x1="30.66" y1="59.25" x2="19.48" y2="22.23" xlink:href="#linear-gradient"/>
    <linearGradient id="linear-gradient4" x1="12.85" y1="64.63" x2="1.67" y2="27.61" xlink:href="#linear-gradient"/>
    <linearGradient id="linear-gradient5" x1="38.74" y1="56.81" x2="27.56" y2="19.79" xlink:href="#linear-gradient"/>
    <linearGradient id="linear-gradient6" x1="60.74" y1="50.17" x2="49.55" y2="13.15" xlink:href="#linear-gradient"/>
    <linearGradient id="linear-gradient7" x1="66.66" y1="48.38" x2="55.48" y2="11.36" xlink:href="#linear-gradient"/>
    <linearGradient id="linear-gradient8" x1="56.6" y1="51.42" x2="45.42" y2="14.4" xlink:href="#linear-gradient"/>
  </defs>
  <path class="st8" d="M16.53,13.5c-.69,1.18-.68,2.75-1.08,2.79-.2.02-.36-.11-.39-.34-.23-1.44-.78-3.19-2.15-3.6l-1.85-.56c-.17-.05-.28-.17-.28-.31,0-.62,2.93-.02,3.93-2.96.18-.54.19-1.21.51-1.69.82-.23.42,1.7,1.5,2.96s2.94,1.23,3.25,1.52c.07.07.09.3-.03.34l-1.38.42c-.81.25-1.6.67-2.04,1.41h0Z"/>
  <path class="st1" d="M12.24,42.2c-.72.66-1.71.83-2.65.44-.72-.29-1.48-1.1-1.48-2.07l-.05-12.27.07-2.79c.01-.95,1.06-1.85,1.85-2.07,1.02-.28,1.79.04,2.42.69.55.57.74,1.15.75,1.97l.03,14.14c0,.79-.34,1.44-.93,1.97h0Z"/>
  <path class="st0" d="M46.68,54.6c-1.47,1.42-1.21,3.46-1.74,3.56-.72.13-.36-2.83-2.36-4.05-1.29-.78-2.61-.48-2.6-1.02,0-.15.11-.32.31-.37l1.56-.42c1.22-.47,2.04-1.41,2.38-2.65l.41-1.47c.03-.11.14-.24.22-.26.12-.03.27.11.32.26l.71,2.21c.33,1.01,1.2,1.65,2.21,1.99l1.44.33c.23.05.33.21.31.4-.05.5-1.89.28-3.18,1.52h0Z"/>
  <path class="st2" d="M17.52,48.38c-.85-.39-1.43-1.26-1.43-2.15v-2.34c0-.72.34-1.25.83-1.73.68-.66,1.63-.84,2.57-.45.76.31,1.43,1.13,1.44,2.1l.02,2.3c0,.85-.41,1.57-.99,1.98-.71.5-1.59.67-2.44.29h0Z"/>
  <path class="st7" d="M2.82,37.51c-1.26.32-2.59-.65-2.6-1.95v-2.56c-.01-1.44,1.57-2.44,2.92-1.95.84.3,1.34,1.14,1.34,2v2.48c-.01.91-.75,1.75-1.67,1.98Z"/>
  <path class="st6" d="M45.79,20.35c-3.45-6.58-11.28-9.54-18.26-6.95-3.82,1.41-6.88,4.36-8.53,8.13-2.1,4.8-1.44,10.43,1.78,14.58l5.68,7.32,5.93,7.38c.24.3.72.48.99.21l.84-.84,3.2-4.03,2.39-3.08,4.72-6.19c1.7-2.5,2.67-5.36,2.95-8.37.27-2.9-.37-5.63-1.69-8.16h0ZM32.67,33.61c-3.62,0-6.56-2.94-6.56-6.56s2.94-6.56,6.56-6.56,6.56,2.94,6.56,6.56-2.94,6.56-6.56,6.56Z"/>
  <path class="st3" d="M56.14,41.06c.01,1.54-.8,2.77-2.33,2.85-1.32.07-2.54-1.02-2.54-2.49l.03-8.46c0-1.36,1.2-2.26,2.43-2.26s2.35,1.01,2.36,2.33l.06,8.03Z"/>
  <path class="st5" d="M61.79,37.85c-1.13.1-2.2-.88-2.2-2v-7.17c0-.67.51-1.27.93-1.57.6-.42,1.33-.48,1.98-.17.78.38,1.28,1.21,1.28,2.1v6.51c0,1.11-.77,2.19-1.99,2.29h0Z"/>
  <circle class="st4" cx="53.76" cy="22.09" r="2.27"/>
</svg>